<svg width="25" height="24" viewBox="0 0 25 24" fill="none" xmlns="http://www.w3.org/2000/svg">
<g id="add-circle">
<path id="Vector" d="M12.5 2.25C7.12391 2.25 2.75 6.62391 2.75 12C2.75 17.3761 7.12391 21.75 12.5 21.75C17.8761 21.75 22.25 17.3761 22.25 12C22.25 6.62391 17.8761 2.25 12.5 2.25ZM16.25 12.75H13.25V15.75C13.25 15.9489 13.171 16.1397 13.0303 16.2803C12.8897 16.421 12.6989 16.5 12.5 16.5C12.3011 16.5 12.1103 16.421 11.9697 16.2803C11.829 16.1397 11.75 15.9489 11.75 15.75V12.75H8.75C8.55109 12.75 8.36032 12.671 8.21967 12.5303C8.07902 12.3897 8 12.1989 8 12C8 11.8011 8.07902 11.6103 8.21967 11.4697C8.36032 11.329 8.55109 11.25 8.75 11.25H11.75V8.25C11.75 8.05109 11.829 7.86032 11.9697 7.71967C12.1103 7.57902 12.3011 7.5 12.5 7.5C12.6989 7.5 12.8897 7.57902 13.0303 7.71967C13.171 7.86032 13.25 8.05109 13.25 8.25V11.25H16.25C16.4489 11.25 16.6397 11.329 16.7803 11.4697C16.921 11.6103 17 11.8011 17 12C17 12.1989 16.921 12.3897 16.7803 12.5303C16.6397 12.671 16.4489 12.75 16.25 12.75Z" fill="white"/>
</g>
</svg>
