<svg width="33" height="32" viewBox="0 0 33 32" fill="none" xmlns="http://www.w3.org/2000/svg">
<g id="Frame" clip-path="url(#clip0_36_12680)">
<g id="Group">
<path id="Vector" d="M31.2409 12.004C31.2465 12.0936 31.2385 12.1835 31.2173 12.2707L29.2434 20.166C29.195 20.3593 29.0837 20.531 28.9269 20.6541C28.7701 20.7771 28.5769 20.8445 28.3776 20.8456L16.5346 20.9054H4.68692C4.4867 20.9054 4.29224 20.8384 4.13449 20.7151C3.97674 20.5918 3.86477 20.4193 3.8164 20.225L1.84256 12.2997C1.82067 12.2102 1.81272 12.1179 1.819 12.0259C1.05542 11.7853 0.5 11.0708 0.5 10.2288C0.5 9.18981 1.34516 8.34466 2.38411 8.34466C3.42307 8.34466 4.26822 9.18981 4.26822 10.2288C4.26822 10.8139 4.00014 11.3373 3.58037 11.6832L6.05161 14.1731C6.67618 14.8024 7.54287 15.1632 8.42954 15.1632C9.47794 15.1632 10.4775 14.6653 11.107 13.8312L15.1683 8.44993C14.9931 8.27534 14.854 8.06783 14.7592 7.83934C14.6644 7.61085 14.6157 7.36587 14.6159 7.11849C14.6159 6.07953 15.461 5.23438 16.5 5.23438C17.539 5.23438 18.3841 6.07953 18.3841 7.11849C18.3841 7.62235 18.1841 8.07968 17.8607 8.41811C17.8618 8.41954 17.8631 8.42074 17.8642 8.42229L21.8961 13.8184C22.5253 14.6606 23.5285 15.1633 24.5799 15.1633C25.4747 15.1633 26.3162 14.8149 26.9489 14.1821L29.4357 11.6953C29.007 11.3495 28.7318 10.821 28.7318 10.2288C28.7318 9.18981 29.5769 8.34466 30.6159 8.34466C31.6548 8.34466 32.5 9.18981 32.5 10.2288C32.5 11.0483 31.973 11.7454 31.2409 12.004ZM29.0508 23.7166C29.0508 23.4787 28.9563 23.2505 28.788 23.0822C28.6198 22.9139 28.3916 22.8194 28.1536 22.8194H4.94615C4.70819 22.8194 4.47999 22.9139 4.31173 23.0822C4.14348 23.2505 4.04895 23.4787 4.04895 23.7166V25.8699C4.04895 26.1078 4.14348 26.336 4.31173 26.5043C4.47999 26.6726 4.70819 26.7671 4.94615 26.7671H28.1536C28.3916 26.7671 28.6198 26.6726 28.788 26.5043C28.9563 26.336 29.0508 26.1078 29.0508 25.8699V23.7166Z" fill="#FFC700"/>
</g>
</g>
<defs>
<clipPath id="clip0_36_12680">
<rect width="32" height="32" fill="white" transform="translate(0.5)"/>
</clipPath>
</defs>
</svg>
