<svg width="20" height="20" viewBox="0 0 20 20" fill="none" xmlns="http://www.w3.org/2000/svg">
<g id="Group">
<path id="Vector" d="M4.56995 0.57C2.36081 0.57 0.569946 2.36086 0.569946 4.57V15.43C0.569946 17.6391 2.36081 19.43 4.56995 19.43H15.4299C17.6391 19.43 19.4299 17.6391 19.4299 15.43V4.57C19.4299 2.36086 17.6391 0.57 15.4299 0.57H4.56995ZM6.48804 18.3249H4.67503C3.01817 18.3249 1.67502 16.9818 1.67502 15.3249V13.5115H6.48804V18.3249ZM6.48804 12.4064H1.67502V7.59318H6.48804V12.4064ZM6.48804 6.4881H1.67502V4.67508C1.67502 3.01822 3.01817 1.67508 4.67502 1.67508H6.48804V6.4881ZM12.4064 18.3249H7.59312V13.5115H12.4064V18.3249ZM12.4064 12.4064H7.59312V7.59318H12.4064V12.4064ZM12.4064 6.4881H7.59312V1.67508H12.4064V6.4881ZM18.3249 15.3249C18.3249 16.9818 16.9817 18.3249 15.3249 18.3249H13.5114V13.5115H18.3249V15.3249ZM18.3249 12.4064H13.5114V7.59318H18.3249V12.4064ZM18.3249 6.4881H13.5114V1.67508H15.3249C16.9817 1.67508 18.3249 3.01822 18.3249 4.67508V6.4881Z" fill="#022486"/>
</g>
</svg>
