<svg width="24" height="24" viewBox="0 0 24 24" fill="none" xmlns="http://www.w3.org/2000/svg">
<g id="gallery" clip-path="url(#clip0_17_574)">
<path id="Vector" d="M21.1073 5.25H6.65625C5.0625 5.25 3.75 6.53953 3.75 8.12484V19.6252C3.75 21.2105 5.0625 22.5 6.65625 22.5H21.0938C22.6875 22.5 24 21.2728 24 19.6875V8.12484C24 6.53953 22.7025 5.25 21.1073 5.25ZM17.4909 8.12531C17.9168 8.1279 18.3324 8.25657 18.6853 8.49507C19.0382 8.73357 19.3125 9.07123 19.4737 9.46546C19.6349 9.85968 19.6757 10.2928 19.591 10.7102C19.5063 11.1276 19.3 11.5106 18.9979 11.8108C18.6958 12.1111 18.3116 12.3151 17.8937 12.3973C17.4758 12.4794 17.0429 12.436 16.6496 12.2724C16.2564 12.1088 15.9204 11.8324 15.6841 11.4781C15.4477 11.1238 15.3216 10.7075 15.3216 10.2816C15.3238 9.70806 15.5535 9.15887 15.9602 8.75453C16.3669 8.35018 16.9174 8.12372 17.4909 8.12484V8.12531ZM6.63703 21.0628C5.84016 21.0628 5.23734 20.4183 5.23734 19.6256V16.5867L9.47766 12.7997C9.89219 12.435 10.4296 12.2411 10.9814 12.2571C11.5333 12.273 12.0586 12.4975 12.4514 12.8855L15.3877 15.7969L10.0908 21.0623L6.63703 21.0628ZM22.5 19.6252C22.4999 19.8141 22.4626 20.0011 22.3903 20.1756C22.3179 20.3501 22.2118 20.5086 22.0781 20.6421C21.9444 20.7756 21.7857 20.8814 21.6111 20.9535C21.4365 21.0256 21.2494 21.0626 21.0605 21.0623H12.1406L17.6287 15.6094C18.0182 15.2808 18.511 15.1 19.0205 15.0986C19.53 15.0973 20.0238 15.2754 20.415 15.6019L22.5 17.3714V19.6252Z" fill="#022486"/>
<path id="Vector_2" d="M18 1.5H3C2.20435 1.5 1.44129 1.81607 0.87868 2.37868C0.316071 2.94129 0 3.70435 0 4.5L0 16.5C0.00054868 17.1651 0.221737 17.8113 0.628907 18.3372C1.03608 18.8631 1.60622 19.2391 2.25 19.4062V7.125C2.25 6.22989 2.60558 5.37145 3.23851 4.73851C3.87145 4.10558 4.72989 3.75 5.625 3.75H20.9062C20.7391 3.10622 20.3631 2.53608 19.8372 2.12891C19.3113 1.72174 18.6651 1.50055 18 1.5Z" fill="#022486"/>
</g>
<defs>
<clipPath id="clip0_17_574">
<rect width="24" height="24" fill="white"/>
</clipPath>
</defs>
</svg>
