<svg width="24" height="24" viewBox="0 0 24 24" fill="none" xmlns="http://www.w3.org/2000/svg">
<g id="pencil">
<path id="Vector" d="M16.8103 6.06001L4.05422 18.8475L3.28125 20.7188L5.1525 19.9458L17.94 7.1897L16.8103 6.06001ZM19.3627 3.50814L18.81 4.06032L19.9397 5.19001L20.4923 4.63736C20.6374 4.49224 20.7188 4.29548 20.7188 4.09032C20.7188 3.88517 20.6374 3.68841 20.4923 3.54329L20.4572 3.50814C20.3853 3.43626 20.3 3.37925 20.2061 3.34035C20.1122 3.30145 20.0116 3.28143 19.9099 3.28143C19.8083 3.28143 19.7076 3.30145 19.6137 3.34035C19.5198 3.37925 19.4345 3.43626 19.3627 3.50814Z" stroke="#022486" stroke-width="2" stroke-linecap="round" stroke-linejoin="round"/>
</g>
</svg>
