<svg width="20" height="20" viewBox="0 0 20 20" fill="none" xmlns="http://www.w3.org/2000/svg">
<g id="Group">
<path id="Vector" d="M3.3657 1.14571L7.07713 4.85714H0.648554C0.779735 4.06914 1.09389 3.32289 1.56578 2.67832C2.03767 2.03375 2.65415 1.50883 3.3657 1.14571ZM8.35427 0.571428H5.71427C5.55141 0.571428 5.38855 0.58 5.2257 0.588571L9.49427 4.85714H12.64L8.35427 0.571428ZM14.2857 0.571428H10.7886L15.0743 4.85714H19.3514C19.1506 3.65892 18.5314 2.57072 17.6039 1.78602C16.6764 1.00131 15.5006 0.570946 14.2857 0.571428ZM8.69884 14.8223L12.9846 12.4651C13.1189 12.3911 13.231 12.2824 13.3091 12.1504C13.3871 12.0183 13.4283 11.8677 13.4283 11.7143C13.4283 11.5609 13.3871 11.4103 13.3091 11.2782C13.231 11.1461 13.1189 11.0374 12.9846 10.9634L8.69884 8.60628C8.56834 8.53449 8.42138 8.49795 8.27245 8.50025C8.12352 8.50255 7.97776 8.54362 7.84954 8.61941C7.72132 8.6952 7.61506 8.8031 7.54124 8.93246C7.46742 9.06183 7.42858 9.2082 7.42855 9.35714V14.0714C7.42858 14.2204 7.46742 14.3667 7.54124 14.4961C7.61506 14.6255 7.72132 14.7334 7.84954 14.8092C7.97776 14.8849 8.12352 14.926 8.27245 14.9283C8.42138 14.9306 8.56834 14.8941 8.69884 14.8223ZM19.4286 6.57143V14.2857C19.4274 15.6493 18.8852 16.9568 17.921 17.921C16.9568 18.8852 15.6493 19.4274 14.2857 19.4286H5.71427C4.35065 19.4274 3.0432 18.8852 2.07897 17.921C1.11475 16.9568 0.572546 15.6493 0.571411 14.2857V6.57143H19.4286Z" fill="#022486"/>
</g>
</svg>
