<svg width="24" height="24" viewBox="0 0 24 24" fill="none" xmlns="http://www.w3.org/2000/svg">
<g id="settings">
<path id="Vector" d="M12.4991 8.03125C11.7574 8.03125 11.0324 8.25118 10.4157 8.66324C9.79902 9.07529 9.31837 9.66096 9.03454 10.3462C8.75071 11.0314 8.67645 11.7854 8.82115 12.5128C8.96584 13.2403 9.32299 13.9085 9.84744 14.4329C10.3719 14.9573 11.0401 15.3145 11.7675 15.4592C12.4949 15.6039 13.2489 15.5296 13.9342 15.2458C14.6194 14.962 15.205 14.4813 15.6171 13.8646C16.0292 13.248 16.2491 12.5229 16.2491 11.7812C16.2461 10.7876 15.8501 9.8355 15.1475 9.13288C14.4448 8.43026 13.4927 8.03422 12.4991 8.03125ZM20.5953 11.7812C20.5934 12.1316 20.5677 12.4815 20.5185 12.8284L22.8008 14.6153C22.9002 14.6974 22.9672 14.8121 22.9898 14.9391C23.0124 15.066 22.9891 15.1968 22.9241 15.3081L20.765 19.0356C20.6994 19.146 20.597 19.2296 20.4757 19.2719C20.3545 19.3142 20.2222 19.3123 20.1022 19.2667L17.4186 18.1886C16.8598 18.6189 16.2483 18.976 15.5989 19.2512L15.1977 22.1003C15.1752 22.2279 15.1091 22.3438 15.0107 22.4281C14.9123 22.5124 14.7877 22.5599 14.6582 22.5625H10.34C10.2128 22.56 10.0902 22.5145 9.99224 22.4334C9.89425 22.3522 9.82666 22.2403 9.8005 22.1158L9.39925 19.2667C8.74809 18.9947 8.13613 18.637 7.57956 18.2031L4.89597 19.2812C4.77601 19.3269 4.64379 19.3288 4.52256 19.2866C4.40133 19.2445 4.29886 19.1609 4.23315 19.0506L2.07409 15.3236C2.0091 15.2123 1.98582 15.0814 2.0084 14.9545C2.03099 14.8276 2.09797 14.7129 2.19737 14.6308L4.47972 12.8439C4.43103 12.4917 4.40535 12.1368 4.40284 11.7812C4.40479 11.4309 4.43047 11.081 4.47972 10.7341L2.19737 8.94719C2.09797 8.86511 2.03099 8.75036 2.0084 8.62344C1.98582 8.49652 2.0091 8.36571 2.07409 8.25437L4.23315 4.52688C4.29879 4.41653 4.40123 4.33286 4.52246 4.29059C4.6437 4.24832 4.77595 4.25016 4.89597 4.29578L7.57956 5.37391C8.13837 4.9436 8.74988 4.58649 9.39925 4.31125L9.8005 1.46219C9.82295 1.33457 9.88903 1.21871 9.98744 1.13441C10.0858 1.05011 10.2105 1.0026 10.34 1H14.6582C14.7853 1.00248 14.9079 1.048 15.0059 1.12913C15.1039 1.21026 15.1715 1.32222 15.1977 1.44672L15.5989 4.29578C16.2509 4.56764 16.8637 4.92533 17.421 5.35938L20.1022 4.28125C20.2222 4.23559 20.3544 4.23368 20.4756 4.27586C20.5968 4.31804 20.6993 4.40161 20.765 4.51187L22.9241 8.23938C22.9891 8.35071 23.0124 8.48152 22.9898 8.60844C22.9672 8.73536 22.9002 8.85011 22.8008 8.93219L20.5185 10.7191C20.5671 11.0711 20.5928 11.4259 20.5953 11.7812Z" fill="#022486"/>
</g>
</svg>
