<svg width="24" height="24" viewBox="0 0 24 24" fill="none" xmlns="http://www.w3.org/2000/svg">
<g id="Support">
<path id="Vector" d="M2.8331 18.2423C2.8331 18.2456 2.8331 18.2517 2.82935 18.2602C2.83075 18.2545 2.83169 18.2484 2.8331 18.2423ZM20.6203 19.0125C20.4659 19.0092 20.3136 18.9774 20.1708 18.9188L17.5092 17.9752L17.4895 17.9672C17.4315 17.943 17.3691 17.9309 17.3062 17.9316C17.2483 17.9316 17.1908 17.9421 17.1365 17.9625C17.0718 17.9869 16.4892 18.2058 15.8779 18.3736C15.5465 18.4645 14.3929 18.7613 13.4672 18.7613C11.1009 18.7613 8.88841 17.8519 7.23794 16.2005C6.43165 15.3991 5.79231 14.4458 5.35693 13.3957C4.92156 12.3456 4.69879 11.2196 4.70153 10.0828C4.70151 9.4905 4.76532 8.8999 4.89185 8.32125C5.30388 6.41719 6.39513 4.68516 7.9645 3.44625C9.57436 2.18346 11.5617 1.49805 13.6078 1.5C16.0551 1.5 18.3356 2.4375 20.0297 4.13344C21.6309 5.73985 22.5084 7.85204 22.5014 10.0805C22.5 11.7364 22.0055 13.3543 21.0811 14.7281L21.0722 14.7413L21.0375 14.7881C21.0295 14.7989 21.0215 14.8092 21.014 14.82L21.007 14.8327C20.9884 14.8644 20.9715 14.8971 20.9564 14.9306L21.6942 17.5528C21.7268 17.661 21.7445 17.7731 21.7467 17.8861C21.7469 18.0341 21.7179 18.1806 21.6613 18.3174C21.6048 18.4541 21.5218 18.5784 21.4172 18.683C21.3126 18.7876 21.1883 18.8706 21.0516 18.9271C20.9148 18.9837 20.7683 19.0127 20.6203 19.0125Z" fill="#022486"/>
<path id="Vector_2" d="M14.0564 19.9401C14.008 19.8459 13.9398 19.7633 13.8566 19.6977C13.7734 19.6322 13.677 19.5854 13.5741 19.5605C13.3031 19.4887 12.9872 19.5009 12.7458 19.4831C10.4664 19.3246 8.32148 18.3464 6.70737 16.7292C5.2724 15.3023 4.33982 13.4478 4.05002 11.445C3.9844 10.9884 3.9844 10.875 3.9844 10.875C3.98437 10.7227 3.93796 10.5739 3.85134 10.4486C3.76472 10.3233 3.64199 10.2274 3.4995 10.1735C3.357 10.1197 3.20149 10.1105 3.05365 10.1472C2.90581 10.1839 2.77265 10.2648 2.6719 10.379C2.6719 10.379 2.30252 10.7812 2.12815 11.1848C1.63909 12.3116 1.43053 13.5402 1.52033 14.7653C1.61014 15.9904 1.99563 17.1754 2.64377 18.2189C2.76565 18.4219 2.76565 18.5156 2.73846 18.7265C2.61049 19.3879 2.38643 20.5547 2.26971 21.1598C2.23107 21.3561 2.24544 21.5591 2.31135 21.7479C2.37727 21.9368 2.49234 22.1046 2.64471 22.2342L2.66627 22.2525C2.86784 22.4126 3.11762 22.4998 3.37502 22.5C3.51981 22.5001 3.66318 22.4716 3.7969 22.4161L6.30518 21.4481C6.39154 21.4153 6.48694 21.4153 6.5733 21.4481C7.56096 21.8156 8.58893 22.0106 9.56299 22.0106C10.7767 22.0117 11.9756 21.7451 13.0744 21.2297C13.3303 21.1097 13.7306 20.9794 13.965 20.7084C14.0537 20.6033 14.1097 20.4745 14.1259 20.338C14.1421 20.2014 14.118 20.0631 14.0564 19.9401Z" fill="#022486"/>
</g>
</svg>
